<svg width="551.86" height="573.89" xmlns="http://www.w3.org/2000/svg">

 <metadata>image/svg+xmlOpenclipartarrow12009-06-03T04:36:04from the old OCAL sitehttps://openclipart.org/detail/26419/arrow1-by-anonymousAnonymousarrowbluesymbol</metadata>
 <g>
  <title>background</title>
  <rect fill="none" id="canvas_background" height="402" width="582" y="-1" x="-1"/>
 </g>
 <g>
  <title>Layer 1</title>
  <g id="layer1">
   <path fill-rule="evenodd" stroke="#000000" stroke-width="0" fill="#ffffff" d="m264.916003,7.659999c-15.15,0 -30.27,5.83 -41.88,17.44c-23.21,23.21 -23.21,60.57 0,83.78l118.78,118.81l-274.9,0c-32.83,0 -59.254,26.46 -59.254,59.29c0,32.82 26.424,59.25 59.254,59.25l274.93,0l-118.81,118.81c-23.21,23.21 -23.21,60.57 0,83.78s60.57,23.21 83.78,0l219.97,-219.97c23.21,-23.21 23.21,-60.57 0,-83.78l-219.97,-219.97c-11.6,-11.61 -26.76,-17.44 -41.9,-17.44z" id="rect1061"/>
  </g>
 </g>
</svg>